<svg xmlns="http://www.w3.org/2000/svg" xmlns:xlink="http://www.w3.org/1999/xlink" viewBox="0 0 501.6 418"><defs><style>.cls-1{fill:url(#linear-gradient);}.cls-2{fill:url(#linear-gradient-2);}.cls-3{fill:url(#linear-gradient-3);}.cls-4{fill:url(#linear-gradient-4);}</style><linearGradient id="linear-gradient" x1="126.29" y1="155.74" x2="542.58" y2="403.01" gradientUnits="userSpaceOnUse"><stop offset="0" stop-color="#f71b38"/><stop offset="1" stop-color="#a60437"/></linearGradient><linearGradient id="linear-gradient-2" x1="103.84" y1="211.36" x2="706.37" y2="413.25" gradientUnits="userSpaceOnUse"><stop offset="0" stop-color="#b6063c"/><stop offset="1" stop-color="#990433"/></linearGradient><linearGradient id="linear-gradient-3" x1="82.76" y1="206.05" x2="167.54" y2="206.05" gradientUnits="userSpaceOnUse"><stop offset="0" stop-color="#ff4c5e"/><stop offset="1" stop-color="#f92d40"/></linearGradient><linearGradient id="linear-gradient-4" x1="102.19" y1="320.43" x2="179.9" y2="320.43" xlink:href="#linear-gradient-3"/></defs><g id="objects"><path class="cls-1" d="M550.8,232.07C550.8,415,300,509,300,509S49.2,415,49.2,232.07C49.2,154.12,109.79,91,184.63,91c48.76,0,91.49,26.86,115.37,67.09C323.88,117.86,366.61,91,415.37,91,490.21,91,550.8,154.12,550.8,232.07Z" transform="translate(-49.2 -91)"/><path class="cls-2" d="M550.8,232.07C550.8,414.94,300,509,300,509s-10.7-4-27.69-12c65.26-44.63,184.88-143.11,184.88-258.82,0-130.7-130.7-124.87-157.19-80.09C323.88,117.85,366.62,91,415.37,91,490.2,91,550.8,154.11,550.8,232.07Z" transform="translate(-49.2 -91)"/><path class="cls-3" d="M144.57,133.29c-30.27,11-61.81,36.41-61.81,94.3A178.4,178.4,0,0,0,90,278.81l51.33-15.9a110.24,110.24,0,0,1-3.83-31.79c.74-34.06,13.19-48.39,30-54.44Z" transform="translate(-49.2 -91)"/><path class="cls-4" d="M179.9,321a125.84,125.84,0,0,1-29.22-35.13l-48.49,22.87A177.19,177.19,0,0,0,137.51,355Z" transform="translate(-49.2 -91)"/></g></svg>